# xmcd CD database file
#
# Track frame offsets:
#	150
#	15881
#	33689
#	52651
#	76111
#	100239
#	118595
#	136787
#	152467
#	172230
#	191209
#	204706
#	222696
#	238302
#	249780
#	273469
#	285599
#	301683
#	314965
#	326376
#	339774
#	351927
#
# Disc length: 4850 seconds
#
# Revision: 0
# Processed by: cddbd v1.5.2PL0 Copyright (c) Steve Scherf et al.
# Submitted via: CDex 1.51
#
DISCID=3a12f016
DTITLE=Madeleine Peyroux - Half the Perfect World
DYEAR=1900
DGENRE=Jazz
TTITLE0=Madeleine Peyroux - I'm Allright
TTITLE1=Madeleine Peyroux - Summer Wind
TTITLE2=Madeleine Peyroux - Blue Alert
TTITLE3=Madeleine Peyroux - Everybody's Talking
TTITLE4=Madeleine Peyroux - River
TTITLE5=Madeleine Peyroux - A Little Bit
TTITLE6=Madeleine Peyroux - Once In A While
TTITLE7=Madeleine Peyroux - Looking For (The Heart Of Satu
TTITLE8=Madeleine Peyroux - Half The Perfect World
TTITLE9=Madeleine Peyroux - La Javanese
TTITLE10=Madeleine Peyroux - California Raining
TTITLE11=Madeleine Peyroux - Smile
TTITLE12=Jelly Roll Morton - The Pearls
TTITLE13=French Accordian Classics - Cafe De Paris - 11 - Swing Valse
TTITLE14=Various Artist - Louisiana Re - Smokin' With Some Barbecue - K
TTITLE15=Django Reinhardt - Minor Swing
TTITLE16=Zooey Deschanel and Leon Redbone - Baby, it's cold outside
TTITLE17=Louis Armstrong's Hot Seven - Potato Head Blues
TTITLE18=Django Reinhardt-I'll See You in My Dreams
TTITLE19=JOSEPH SPENCE - Face to Face That I Shall Know Him
TTITLE20=Billie Holiday - Back in Your Own Backyard
TTITLE21=Jane Wyman, Groucho Marx, Dann - Black Strap Molasses
EXTD=
EXTT0=
EXTT1=
EXTT2=
EXTT3=
EXTT4=
EXTT5=
EXTT6=
EXTT7=
EXTT8=
EXTT9=
EXTT10=
EXTT11=
EXTT12=
EXTT13=
EXTT14=
EXTT15=
EXTT16=
EXTT17=
EXTT18=
EXTT19=
EXTT20=
EXTT21=
PLAYORDER=
